HIERARCHY
ROOT Hips
{
  OFFSET -18.6024 93.8698 9.38119
  CHANNELS 6 Xposition Yposition Zposition Zrotation Xrotation Yrotation
  JOINT Spine
  {
    OFFSET 0 8.59463 0
    CHANNELS 6 Xposition Yposition Zposition Zrotation Xrotation Yrotation
    JOINT Spine1
    {
      OFFSET 0 8.59463 0
      CHANNELS 6 Xposition Yposition Zposition Zrotation Xrotation Yrotation
      JOINT Spine2
      {
        OFFSET 0 8.59463 0
        CHANNELS 6 Xposition Yposition Zposition Zrotation Xrotation Yrotation
        JOINT Spine3
        {
          OFFSET 0 8.59463 0
          CHANNELS 6 Xposition Yposition Zposition Zrotation Xrotation Yrotation
          JOINT Neck
          {
            OFFSET 0 18.2636 0
            CHANNELS 6 Xposition Yposition Zposition Zrotation Xrotation Yrotation
            JOINT Head
            {
              OFFSET 0 11.6027 0
              CHANNELS 6 Xposition Yposition Zposition Zrotation Xrotation Yrotation
              End Site
              {
                OFFSET 0 21.7552 0
              }
            }
          }
          JOINT LeftShoulder
          {
            OFFSET 5 17 0
            CHANNELS 6 Xposition Yposition Zposition Zrotation Xrotation Yrotation
            JOINT LeftShoulder2
            {
              OFFSET 7.25 0 0
              CHANNELS 6 Xposition Yposition Zposition Zrotation Xrotation Yrotation
              JOINT LeftArm
              {
                OFFSET 7.25 0 0
                CHANNELS 6 Xposition Yposition Zposition Zrotation Xrotation Yrotation
                JOINT LeftForeArm
                {
                  OFFSET 0 -30.1395 -2
                  CHANNELS 6 Xposition Yposition Zposition Zrotation Xrotation Yrotation
                  JOINT LeftHand
                  {
                    OFFSET 0 -23.8605 2
                    CHANNELS 6 Xposition Yposition Zposition Zrotation Xrotation Yrotation
                    JOINT LeftHandThumb1
                    {
                      OFFSET -0.5 -1.5 2.65
                      CHANNELS 6 Xposition Yposition Zposition Zrotation Xrotation Yrotation
                      JOINT LeftHandThumb2
                      {
                        OFFSET 0 -3.8 3.7
                        CHANNELS 6 Xposition Yposition Zposition Zrotation Xrotation Yrotation
                        JOINT LeftHandThumb3
                        {
                          OFFSET 0 -3 2.7
                          CHANNELS 6 Xposition Yposition Zposition Zrotation Xrotation Yrotation
                          End Site
                          {
                            OFFSET 0 -2.3 1.8
                          }
                        }
                      }
                    }
                    JOINT LeftHandIndex
                    {
                      OFFSET 0 -1.9 1.6
                      CHANNELS 6 Xposition Yposition Zposition Zrotation Xrotation Yrotation
                      JOINT LeftHandIndex1
                      {
                        OFFSET 0 -8.3 1.9
                        CHANNELS 6 Xposition Yposition Zposition Zrotation Xrotation Yrotation
                        JOINT LeftHandIndex2
                        {
                          OFFSET 0 -4.5 0
                          CHANNELS 6 Xposition Yposition Zposition Zrotation Xrotation Yrotation
                          JOINT LeftHandIndex3
                          {
                            OFFSET 0 -3.4 0
                            CHANNELS 6 Xposition Yposition Zposition Zrotation Xrotation Yrotation
                            End Site
                            {
                              OFFSET 0 -2.6 0
                            }
                          }
                        }
                      }
                    }
                    JOINT LeftHandMiddle
                    {
                      OFFSET -0.25 -2.2 0.4
                      CHANNELS 6 Xposition Yposition Zposition Zrotation Xrotation Yrotation
                      JOINT LeftHandMiddle1
                      {
                        OFFSET 0 -8.3 1
                        CHANNELS 6 Xposition Yposition Zposition Zrotation Xrotation Yrotation
                        JOINT LeftHandMiddle2
                        {
                          OFFSET 0 -4.65 0
                          CHANNELS 6 Xposition Yposition Zposition Zrotation Xrotation Yrotation
                          JOINT LeftHandMiddle3
                          {
                            OFFSET 0 -3.3 0
                            CHANNELS 6 Xposition Yposition Zposition Zrotation Xrotation Yrotation
                            End Site
                            {
                              OFFSET 0 -2.7 0
                            }
                          }
                        }
                      }
                    }
                    JOINT LeftHandRing
                    {
                      OFFSET -0.5 -2.15 -0.8
                      CHANNELS 6 Xposition Yposition Zposition Zrotation Xrotation Yrotation
                      JOINT LeftHandRing1
                      {
                        OFFSET 0 -7.75 -0.2
                        CHANNELS 6 Xposition Yposition Zposition Zrotation Xrotation Yrotation
                        JOINT LeftHandRing2
                        {
                          OFFSET 0 -3.8 0
                          CHANNELS 6 Xposition Yposition Zposition Zrotation Xrotation Yrotation
                          JOINT LeftHandRing3
                          {
                            OFFSET 0 -3.4 0
                            CHANNELS 6 Xposition Yposition Zposition Zrotation Xrotation Yrotation
                            End Site
                            {
                              OFFSET 0 -2.6 0
                            }
                          }
                        }
                      }
                    }
                    JOINT LeftHandPinky
                    {
                      OFFSET -0.75 -1.75 -1.85
                      CHANNELS 6 Xposition Yposition Zposition Zrotation Xrotation Yrotation
                      JOINT LeftHandPinky1
                      {
                        OFFSET 0 -7.15 -1
                        CHANNELS 6 Xposition Yposition Zposition Zrotation Xrotation Yrotation
                        JOINT LeftHandPinky2
                        {
                          OFFSET 0 -3 0
                          CHANNELS 6 Xposition Yposition Zposition Zrotation Xrotation Yrotation
                          JOINT LeftHandPinky3
                          {
                            OFFSET 0 -2.35 0
                            CHANNELS 6 Xposition Yposition Zposition Zrotation Xrotation Yrotation
                            End Site
                            {
                              OFFSET 0 -2.1 0
                            }
                          }
                        }
                      }
                    }
                  }
                }
              }
            }
          }
          JOINT RightShoulder
          {
            OFFSET -5 17 0
            CHANNELS 6 Xposition Yposition Zposition Zrotation Xrotation Yrotation
            JOINT RightShoulder2
            {
              OFFSET -7.25 0 0
              CHANNELS 6 Xposition Yposition Zposition Zrotation Xrotation Yrotation
              JOINT RightArm
              {
                OFFSET -7.25 0 0
                CHANNELS 6 Xposition Yposition Zposition Zrotation Xrotation Yrotation
                JOINT RightForeArm
                {
                  OFFSET 0 -30.1395 -2
                  CHANNELS 6 Xposition Yposition Zposition Zrotation Xrotation Yrotation
                  JOINT RightHand
                  {
                    OFFSET 0 -23.8605 2
                    CHANNELS 6 Xposition Yposition Zposition Zrotation Xrotation Yrotation
                    JOINT RightHandThumb1
                    {
                      OFFSET 0.5 -1.5 2.65
                      CHANNELS 6 Xposition Yposition Zposition Zrotation Xrotation Yrotation
                      JOINT RightHandThumb2
                      {
                        OFFSET 0 -3.8 3.7
                        CHANNELS 6 Xposition Yposition Zposition Zrotation Xrotation Yrotation
                        JOINT RightHandThumb3
                        {
                          OFFSET 0 -3 2.7
                          CHANNELS 6 Xposition Yposition Zposition Zrotation Xrotation Yrotation
                          End Site
                          {
                            OFFSET 0 -2.3 1.8
                          }
                        }
                      }
                    }
                    JOINT RightHandIndex
                    {
                      OFFSET 0 -1.9 1.6
                      CHANNELS 6 Xposition Yposition Zposition Zrotation Xrotation Yrotation
                      JOINT RightHandIndex1
                      {
                        OFFSET 0 -8.3 1.9
                        CHANNELS 6 Xposition Yposition Zposition Zrotation Xrotation Yrotation
                        JOINT RightHandIndex2
                        {
                          OFFSET 0 -4.5 0
                          CHANNELS 6 Xposition Yposition Zposition Zrotation Xrotation Yrotation
                          JOINT RightHandIndex3
                          {
                            OFFSET 0 -3.4 0
                            CHANNELS 6 Xposition Yposition Zposition Zrotation Xrotation Yrotation
                            End Site
                            {
                              OFFSET 0 -2.6 0
                            }
                          }
                        }
                      }
                    }
                    JOINT RightHandMiddle
                    {
                      OFFSET 0.25 -2.2 0.4
                      CHANNELS 6 Xposition Yposition Zposition Zrotation Xrotation Yrotation
                      JOINT RightHandMiddle1
                      {
                        OFFSET 0 -8.3 1
                        CHANNELS 6 Xposition Yposition Zposition Zrotation Xrotation Yrotation
                        JOINT RightHandMiddle2
                        {
                          OFFSET 0 -4.65 0
                          CHANNELS 6 Xposition Yposition Zposition Zrotation Xrotation Yrotation
                          JOINT RightHandMiddle3
                          {
                            OFFSET 0 -3.3 0
                            CHANNELS 6 Xposition Yposition Zposition Zrotation Xrotation Yrotation
                            End Site
                            {
                              OFFSET 0 -2.7 0
                            }
                          }
                        }
                      }
                    }
                    JOINT RightHandRing
                    {
                      OFFSET 0.5 -2.15 -0.8
                      CHANNELS 6 Xposition Yposition Zposition Zrotation Xrotation Yrotation
                      JOINT RightHandRing1
                      {
                        OFFSET 0 -7.75 -0.2
                        CHANNELS 6 Xposition Yposition Zposition Zrotation Xrotation Yrotation
                        JOINT RightHandRing2
                        {
                          OFFSET 0 -3.8 0
                          CHANNELS 6 Xposition Yposition Zposition Zrotation Xrotation Yrotation
                          JOINT RightHandRing3
                          {
                            OFFSET 0 -3.4 0
                            CHANNELS 6 Xposition Yposition Zposition Zrotation Xrotation Yrotation
                            End Site
                            {
                              OFFSET 0 -2.6 0
                            }
                          }
                        }
                      }
                    }
                    JOINT RightHandPinky
                    {
                      OFFSET 0.75 -1.75 -1.85
                      CHANNELS 6 Xposition Yposition Zposition Zrotation Xrotation Yrotation
                      JOINT RightHandPinky1
                      {
                        OFFSET 0 -7.15 -1
                        CHANNELS 6 Xposition Yposition Zposition Zrotation Xrotation Yrotation
                        JOINT RightHandPinky2
                        {
                          OFFSET 0 -3 0
                          CHANNELS 6 Xposition Yposition Zposition Zrotation Xrotation Yrotation
                          JOINT RightHandPinky3
                          {
                            OFFSET 0 -2.35 0
                            CHANNELS 6 Xposition Yposition Zposition Zrotation Xrotation Yrotation
                            End Site
                            {
                              OFFSET 0 -2.1 0
                            }
                          }
                        }
                      }
                    }
                  }
                }
              }
            }
          }
        }
      }
    }
  }
  JOINT LeftUpLeg
  {
    OFFSET 12.5 0 0
    CHANNELS 6 Xposition Yposition Zposition Zrotation Xrotation Yrotation
    JOINT LeftLeg
    {
      OFFSET 0 -45.2616 -1
      CHANNELS 6 Xposition Yposition Zposition Zrotation Xrotation Yrotation
      JOINT LeftFoot
      {
        OFFSET 0 -41.2384 -2
        CHANNELS 6 Xposition Yposition Zposition Zrotation Xrotation Yrotation
        JOINT LeftToeBase
        {
          OFFSET 0 -7.5 12.5
          CHANNELS 6 Xposition Yposition Zposition Zrotation Xrotation Yrotation
          JOINT LeftFootToe
          {
            OFFSET 0 0 4
            CHANNELS 6 Xposition Yposition Zposition Zrotation Xrotation Yrotation
            End Site
            {
              OFFSET 0 0 0
            }
          }
        }
      }
    }
  }
  JOINT RightUpLeg
  {
    OFFSET -12.5 0 0
    CHANNELS 6 Xposition Yposition Zposition Zrotation Xrotation Yrotation
    JOINT RightLeg
    {
      OFFSET 0 -45.2616 -1
      CHANNELS 6 Xposition Yposition Zposition Zrotation Xrotation Yrotation
      JOINT RightFoot
      {
        OFFSET 0 -41.2384 -2
        CHANNELS 6 Xposition Yposition Zposition Zrotation Xrotation Yrotation
        JOINT RightToeBase
        {
          OFFSET 0 -7.5 12.5
          CHANNELS 6 Xposition Yposition Zposition Zrotation Xrotation Yrotation
          JOINT RightFootToe
          {
            OFFSET 0 0 4
            CHANNELS 6 Xposition Yposition Zposition Zrotation Xrotation Yrotation
            End Site
            {
              OFFSET 0 0 0
            }
          }
        }
      }
    }
  }
}
MOTION
Frames:	3
Frame Time:	0.0111111
-18.7419 93.8702 9.38722 0.0613791 -0.0709511 127.856 2.66454e-15 8.59463 0 0.960383 -0.917328 -8.46844 -1.77636e-15 8.59463 0 -0.473765 0.418513 -0.638742 0 8.59463 0 -0.237468 0.2086 -0.319793 0 8.59463 0 -0.23746 0.208593 -0.319792 0 18.2636 -3.55271e-15 0.626567 -0.228085 -0.241472 1.77636e-15 11.6027 7.10543e-15 -2.6893 -5.46318 -0.660085 5 17 -3.55271e-15 1.69403 2.69927 -1.75198 7.25 0 -3.55271e-15 -0.628009 -2.14967 -4.51269 7.25 2.84217e-14 -3.55271e-15 2.72974 -0.469391 -2.67647 0 -30.1395 -2 -5.91912 -7.74054 -7.92108 -1.77636e-15 -23.8605 2 -3.00916 1.92415 -9.1677 -0.5 -1.5 2.65 6.82987 -23.5215 0.0911964 0 -3.8 3.7 -0.0367632 24.0585 -1.52387e-15 0 -3 2.7 -2.4961e-15 40.5529 2.61626e-15 -1.77636e-15 -1.9 1.6 7.95139e-16 1.78906e-15 -3.97569e-16 8.88178e-16 -8.3 1.9 -0.338782 -0.706576 -0.00417642 -8.88178e-16 -4.5 0 -0.000125572 -9.29273e-09 -9.93923e-15 1.77636e-15 -3.4 0 7.95139e-16 5.71506e-16 3.97569e-16 -0.25 -2.2 0.4 7.95139e-16 1.98785e-16 -3.97569e-16 -8.88178e-16 -8.3 1 -0.25556 -0.57088 -0 8.88178e-16 -4.65 1.77636e-15 -0.00015455 -8.69683e-16 -0 -8.88178e-16 -3.3 -3.55271e-15 -1.31198e-14 4.22417e-16 -0 -0.5 -2.15 -0.8 7.95139e-16 1.78906e-15 -3.97569e-16 8.88178e-16 -7.75 -0.2 -0.0884292 -0.299877 -0 8.88178e-16 -3.8 1.77636e-15 -5.79561e-05 1.19271e-15 -0 0 -3.4 0 3.97569e-16 -3.97569e-16 -0 -0.75 -1.75 -1.85 7.95139e-16 1.78906e-15 -3.97569e-16 1.77636e-15 -7.15 -1 -0.0241969 -0.164424 7.95142e-16 0 -3 -3.55271e-15 0 1.49089e-15 -0 0 -2.35 7.10543e-15 0 2.31087e-15 -0 -5 17 0 -0.211929 2.87692 -2.81895 -7.25 -2.84217e-14 -3.55271e-15 -1.56903 0.138552 0.0923717 -7.25 0 3.55271e-15 4.11177 -3.71924 4.65879 0 -30.1395 -2 -1.52341 -3.26778 6.38092 1.77636e-15 -23.8605 2 1.89547 -1.65671 4.60316 0.5 -1.5 2.65 0.668653 -29.0598 -2.59743 0 -3.8 3.7 -8.08918e-15 28.5163 3.61969e-15 2.66454e-15 -3 2.7 -1.44534e-15 50.2982 4.97901e-15 3.55271e-15 -1.9 1.6 -1.59028e-15 -7.95139e-16 -1.59028e-14 -1.77636e-15 -8.3 1.9 10.5263 2.5208 -0.279703 -3.55271e-15 -4.5 -1.77636e-15 1.64291 0 -0 3.55271e-15 -3.4 0 1.60655 0 -9.54166e-15 0.25 -2.2 0.4 -1.59028e-15 -1.98785e-15 -1.59028e-14 0 -8.3 1 7.88466 1.89313 -0.165828 0 -4.65 -1.77636e-15 5.47459 0 1.27222e-14 0 -3.3 -1.77636e-15 5.09159 -1.59028e-15 1.27222e-14 0.5 -2.15 -0.8 -1.59028e-15 -3.97569e-16 -1.59028e-14 -1.77636e-15 -7.75 -0.2 2.71709 0.698364 -0.0284447 1.77636e-15 -3.8 -1.77636e-15 1.22595 1.59028e-15 6.36111e-15 -3.55271e-15 -3.4 -1.77636e-15 1.2056 -7.95139e-16 1.27222e-14 0.75 -1.75 -1.85 -1.59028e-15 -7.95139e-16 -1.59028e-14 0 -7.15 -1 0.11397 0.0738441 0.00567645 3.55271e-15 -3 0 0.847584 -1.59028e-15 6.36111e-15 -1.77636e-15 -2.35 3.55271e-15 0.837835 -7.95139e-16 -1.27222e-14 12.5 -1.42109e-14 0 3.78035 1.88386 40.6829 0 -45.2616 -1 -0.00287933 3.83773 -0.465296 7.10543e-15 -41.2384 -2 -3.9948 -2.89827 4.22694 -7.10543e-15 -7.5 12.5 7.76503e-19 -8.3212e-10 -1.59028e-15 0 -2.77556e-17 4 1.01452 -1.14353 -57.8271 -12.5 0 3.55271e-15 -0.614058 -4.08938 22.9846 8.88178e-16 -45.2616 -1 -0.00350589 4.02581 -0.589655 8.88178e-16 -41.2384 -2 2.2581 -0.508125 -3.58967 0 -7.5 12.5 3.63986e-20 6.06643e-21 -0 -8.88178e-16 0 4 -2.77975 -0.630467 -26.8291 
-18.7403 93.8701 9.38595 0.0613638 -0.0709563 127.853 8.88178e-16 8.59463 0 0.95866 -0.919249 -8.46872 -1.77636e-15 8.59463 0 -0.473703 0.419483 -0.637612 -1.77636e-15 8.59463 3.55271e-15 -0.237437 0.209086 -0.319237 1.77636e-15 8.59463 -3.55271e-15 -0.23743 0.20908 -0.319228 0 18.2636 0 0.626555 -0.232709 -0.241519 0 11.6027 0 -2.68828 -5.46048 -0.660379 5 17 -3.55271e-15 1.6934 2.69863 -1.75066 7.25 -2.84217e-14 0 -0.629575 -2.15177 -4.51324 7.25 -2.84217e-14 3.55271e-15 2.72893 -0.468583 -2.67258 -3.55271e-15 -30.1395 -2 -5.91646 -7.74156 -7.91932 1.77636e-15 -23.8605 2 -3.0067 1.92197 -9.16801 -0.5 -1.5 2.65 6.82519 -23.5182 0.0880973 0 -3.8 3.7 -0.0367577 24.0542 -1.08844e-16 -1.77636e-15 -3 2.7 3.4019e-15 40.5528 -5.2325e-15 0 -1.9 1.6 3.97569e-16 1.98785e-16 -3.97569e-16 0 -8.3 1.9 -0.338778 -0.706352 -0.00417642 0 -4.5 -1.77636e-15 -0.000125572 -9.29273e-09 -1.03368e-14 8.88178e-16 -3.4 -1.77636e-15 -3.97569e-16 4.96962e-17 -0 -0.25 -2.2 0.4 3.97569e-16 -1.39149e-15 -3.97569e-16 1.77636e-15 -8.3 1 -0.255553 -0.570675 3.97589e-16 -1.77636e-15 -4.65 1.77636e-15 -0.00015455 1.54058e-15 -0 0 -3.3 1.77636e-15 -1.11319e-14 3.97569e-16 3.97569e-16 -0.5 -2.15 -0.8 3.97569e-16 1.98785e-16 -3.97569e-16 -8.88178e-16 -7.75 -0.2 -0.0884247 -0.299707 -3.97575e-16 0 -3.8 -1.77636e-15 -5.79561e-05 -6.70898e-16 3.97569e-16 -8.88178e-16 -3.4 3.55271e-15 -7.95139e-16 -6.70898e-16 -0 -0.75 -1.75 -1.85 3.97569e-16 1.98785e-16 -3.97569e-16 8.88178e-16 -7.15 -1 -0.0241969 -0.164272 -3.97571e-16 0 -3 -3.55271e-15 -4.13804e-33 -2.98177e-16 -7.95139e-16 0 -2.35 3.55271e-15 -2.06902e-33 -2.98177e-16 -3.97569e-16 -5 17 0 -0.212844 2.8732 -2.81682 -7.25 0 3.55271e-15 -1.56811 0.140473 0.0925641 -7.25 -2.84217e-14 3.55271e-15 3.8605 -3.80161 4.57796 -1.77636e-15 -30.1395 -2 -1.52757 -3.2683 6.36706 0 -23.8605 2 1.88716 -1.6554 4.59018 0.5 -1.5 2.65 0.665967 -29.0589 -2.59794 0 -3.8 3.7 0 28.5126 -0 8.88178e-16 -3 2.7 6.21667e-15 50.3019 -4.9794e-15 3.55271e-15 -1.9 1.6 7.95139e-16 3.97569e-16 -0 -1.77636e-15 -8.3 1.9 10.5301 2.52151 -0.279883 -1.77636e-15 -4.5 -1.77636e-15 1.64231 0 6.36111e-15 1.77636e-15 -3.4 1.77636e-15 1.60599 -3.18055e-15 -6.36111e-15 0.25 -2.2 0.4 7.95139e-16 -1.19271e-15 -0 0 -8.3 1 7.88753 1.89293 -0.165906 0 -4.65 0 5.48003 1.59028e-15 6.36111e-15 1.77636e-15 -3.3 0 5.09631 0 -0 0.5 -2.15 -0.8 7.95139e-16 3.97569e-16 -0 1.77636e-15 -7.75 -0.2 2.71824 0.696291 -0.0284216 -1.77636e-15 -3.8 0 1.23147 7.95139e-16 1.90833e-14 1.77636e-15 -3.4 0 1.21097 7.95139e-16 6.36111e-15 0.75 -1.75 -1.85 7.95139e-16 3.97569e-16 -0 1.77636e-15 -7.15 -1 0.114232 0.0708573 0.00567645 0 -3 -3.55271e-15 0.848863 0 1.27222e-14 3.55271e-15 -2.35 0 0.839095 2.38542e-15 1.90833e-14 12.5 0 3.55271e-15 3.78059 1.88575 40.6869 7.10543e-15 -45.2616 -1 -0.00304072 3.83808 -0.465981 0 -41.2384 -2 -3.99306 -2.91077 4.22611 0 -7.5 12.5 -0 -8.3212e-10 -0 7.10543e-15 0 4 1.01251 -1.1323 -57.8272 -12.5 0 0 -0.613365 -4.08945 22.9879 0 -45.2616 -1 -0.00378031 4.02823 -0.589972 -8.88178e-16 -41.2384 -2 2.25758 -0.514758 -3.58995 -8.88178e-16 -7.5 12.5 7.76503e-19 -7.76503e-19 9.54166e-15 0 0 4 -2.77953 -0.62605 -26.8288 
-18.7389 93.8701 9.38535 0.061347 -0.0709946 127.849 0 8.59463 0 0.956242 -0.919775 -8.46818 0 8.59463 -3.55271e-15 -0.473628 0.419862 -0.637055 -1.77636e-15 8.59463 -3.55271e-15 -0.237432 0.209179 -0.318966 0 8.59463 0 -0.237351 0.209002 -0.319198 -1.77636e-15 18.2636 0 0.626718 -0.236231 -0.241628 1.77636e-15 11.6027 0 -2.68791 -5.45946 -0.660154 5 17 0 1.69312 2.69835 -1.74814 7.25 2.84217e-14 0 -0.629875 -2.15361 -4.51319 7.25 0 -3.55271e-15 2.7284 -0.46817 -2.67096 3.55271e-15 -30.1395 -2 -5.91305 -7.74212 -7.91751 0 -23.8605 2 -3.00386 1.91861 -9.16708 -0.5 -1.5 2.65 6.81899 -23.5146 0.0839881 -3.55271e-15 -3.8 3.7 -0.0367577 24.0497 -7.07463e-15 0 -3 2.7 3.17646e-15 40.5527 -3.66275e-15 8.88178e-16 -1.9 1.6 1.59028e-15 1.09332e-15 -0 -8.88178e-16 -8.3 1.9 -0.338732 -0.705931 -0.00417642 -1.77636e-15 -4.5 3.55271e-15 -0.000125572 -9.29273e-09 -1.03368e-14 0 -3.4 -1.77636e-15 -0 -2.98177e-16 -0 -0.25 -2.2 0.4 1.59028e-15 -4.96962e-16 -0 8.88178e-16 -8.3 1 -0.255544 -0.570463 -1.59036e-15 -1.77636e-15 -4.65 1.77636e-15 -0.00015455 1.2424e-15 -0 -8.88178e-16 -3.3 1.77636e-15 -1.23246e-14 -1.54058e-15 -3.97569e-16 -0.5 -2.15 -0.8 1.59028e-15 1.09332e-15 -0 0 -7.75 -0.2 -0.0884159 -0.299581 -7.9515e-16 8.88178e-16 -3.8 1.77636e-15 -5.79561e-05 7.45443e-16 3.97569e-16 0 -3.4 1.77636e-15 -1.19271e-15 -8.19987e-16 -3.97569e-16 -0.75 -1.75 -1.85 1.59028e-15 1.09332e-15 -0 0 -7.15 -1 -0.0241969 -0.164244 -3.97571e-16 8.88178e-16 -3 3.55271e-15 1.13796e-32 1.63997e-15 -3.97569e-16 -8.88178e-16 -2.35 -3.55271e-15 2.3104e-32 1.66482e-15 -7.95139e-16 -5 17 3.55271e-15 -0.213101 2.87024 -2.81439 -7.25 -2.84217e-14 0 -1.56811 0.14073 0.0922429 -7.25 -2.84217e-14 0 3.49239 -3.92579 4.45569 0 -30.1395 -2 -1.52993 -3.26859 6.35452 0 -23.8605 2 1.88005 -1.65577 4.58072 0.5 -1.5 2.65 0.659953 -29.0574 -2.60374 0 -3.8 3.7 -2.90602e-15 28.509 -7.23888e-15 0 -3 2.7 1.59028e-15 50.3062 -0 0 -1.9 1.6 -3.97569e-16 7.95139e-16 3.18055e-15 0 -8.3 1.9 10.5317 2.52105 -0.27988 0 -4.5 0 1.64221 1.59028e-15 -0 0 -3.4 0 1.60561 0 3.18055e-15 0.25 -2.2 0.4 -3.97569e-16 -7.95139e-16 3.18055e-15 0 -8.3 1 7.88868 1.89213 -0.165876 0 -4.65 0 5.48608 -3.18055e-15 -9.54166e-15 -1.77636e-15 -3.3 0 5.10155 3.18055e-15 1.27222e-14 0.5 -2.15 -0.8 -3.97569e-16 7.95139e-16 3.18055e-15 -1.77636e-15 -7.75 -0.2 2.71726 0.694239 -0.0284058 1.77636e-15 -3.8 -1.77636e-15 1.23633 1.59028e-15 -9.54166e-15 0 -3.4 1.77636e-15 1.21566 0 -9.54166e-15 0.75 -1.75 -1.85 -3.97569e-16 7.95139e-16 3.18055e-15 0 -7.15 -1 0.114051 0.0681075 0.00567645 -1.77636e-15 -3 3.55271e-15 0.851617 -7.95139e-16 3.18055e-15 0 -2.35 0 0.841843 0 -3.18055e-15 12.5 -1.42109e-14 3.55271e-15 3.7802 1.8879 40.6888 0 -45.2616 -1 -0.00311476 3.83825 -0.466297 0 -41.2384 -2 -3.99279 -2.91182 4.22858 0 -7.5 12.5 -2.3096e-26 -8.3212e-10 -1.59028e-15 0 2.77556e-17 4 1.01255 -1.13235 -57.8272 -12.5 1.42109e-14 3.55271e-15 -0.612846 -4.08937 22.9913 0 -45.2616 -1 -0.00393041 4.02958 -0.590141 8.88178e-16 -41.2384 -2 2.25744 -0.515717 -3.58992 0 -7.5 12.5 0 0 -3.18055e-15 0 2.1684e-19 4 -2.7796 -0.625985 -26.8288 
